<mxfile host="app.diagrams.net" modified="2023-04-03T11:06:31.823Z" agent="Mozilla/5.0 (Windows NT 10.0; Win64; x64) AppleWebKit/537.36 (KHTML, like Gecko) Chrome/111.0.0.0 Safari/537.36" etag="9_1P6-ThU5YcGR_tBRUX" version="21.1.2" type="device">
  <diagram id="dwlmqH6nL9qEr7c7bo0p" name="Page-1">
    <mxGraphModel dx="1434" dy="764" grid="1" gridSize="10" guides="1" tooltips="1" connect="1" arrows="1" fold="1" page="1" pageScale="1" pageWidth="1169" pageHeight="827" math="0" shadow="0">
      <root>
        <mxCell id="0" />
        <mxCell id="1" parent="0" />
        <mxCell id="xJ5RliRv3Egy2EiU3JDo-8" value="" style="group" vertex="1" connectable="0" parent="1">
          <mxGeometry x="40" y="230" width="330" height="409" as="geometry" />
        </mxCell>
        <mxCell id="ISb06XqgIUKjQXBkhnW_-24" value="&lt;font style=&quot;font-size: 24px;&quot;&gt;Mode-1 (Columns)&lt;/font&gt;" style="text;html=1;align=center;verticalAlign=middle;resizable=0;points=[];autosize=1;strokeColor=none;fillColor=none;" parent="xJ5RliRv3Egy2EiU3JDo-8" vertex="1">
          <mxGeometry x="55" y="369" width="220" height="40" as="geometry" />
        </mxCell>
        <mxCell id="xJ5RliRv3Egy2EiU3JDo-6" value="" style="group" vertex="1" connectable="0" parent="xJ5RliRv3Egy2EiU3JDo-8">
          <mxGeometry width="330" height="330" as="geometry" />
        </mxCell>
        <mxCell id="ISb06XqgIUKjQXBkhnW_-9" value="" style="shape=cube;whiteSpace=wrap;html=1;boundedLbl=1;backgroundOutline=1;darkOpacity=0.05;darkOpacity2=0.1;flipV=0;flipH=1;container=0;" parent="xJ5RliRv3Egy2EiU3JDo-6" vertex="1">
          <mxGeometry x="90" width="60" height="240" as="geometry" />
        </mxCell>
        <mxCell id="ISb06XqgIUKjQXBkhnW_-10" value="" style="shape=cube;whiteSpace=wrap;html=1;boundedLbl=1;backgroundOutline=1;darkOpacity=0.05;darkOpacity2=0.1;flipV=0;flipH=1;container=0;" parent="xJ5RliRv3Egy2EiU3JDo-6" vertex="1">
          <mxGeometry x="150" width="60" height="240" as="geometry" />
        </mxCell>
        <mxCell id="ISb06XqgIUKjQXBkhnW_-6" value="" style="shape=cube;whiteSpace=wrap;html=1;boundedLbl=1;backgroundOutline=1;darkOpacity=0.05;darkOpacity2=0.1;flipV=0;flipH=1;container=0;" parent="xJ5RliRv3Egy2EiU3JDo-6" vertex="1">
          <mxGeometry x="60" y="30" width="60" height="240" as="geometry" />
        </mxCell>
        <mxCell id="ISb06XqgIUKjQXBkhnW_-8" value="" style="shape=cube;whiteSpace=wrap;html=1;boundedLbl=1;backgroundOutline=1;darkOpacity=0.05;darkOpacity2=0.1;flipV=0;flipH=1;container=0;" parent="xJ5RliRv3Egy2EiU3JDo-6" vertex="1">
          <mxGeometry x="120" y="30" width="60" height="240" as="geometry" />
        </mxCell>
        <mxCell id="ISb06XqgIUKjQXBkhnW_-74" value="" style="shape=cube;whiteSpace=wrap;html=1;boundedLbl=1;backgroundOutline=1;darkOpacity=0.05;darkOpacity2=0.1;flipV=0;flipH=1;container=0;" parent="xJ5RliRv3Egy2EiU3JDo-6" vertex="1">
          <mxGeometry x="210" width="60" height="240" as="geometry" />
        </mxCell>
        <mxCell id="ISb06XqgIUKjQXBkhnW_-75" value="" style="shape=cube;whiteSpace=wrap;html=1;boundedLbl=1;backgroundOutline=1;darkOpacity=0.05;darkOpacity2=0.1;flipV=0;flipH=1;container=0;" parent="xJ5RliRv3Egy2EiU3JDo-6" vertex="1">
          <mxGeometry x="270" width="60" height="240" as="geometry" />
        </mxCell>
        <mxCell id="ISb06XqgIUKjQXBkhnW_-76" value="" style="shape=cube;whiteSpace=wrap;html=1;boundedLbl=1;backgroundOutline=1;darkOpacity=0.05;darkOpacity2=0.1;flipV=0;flipH=1;container=0;" parent="xJ5RliRv3Egy2EiU3JDo-6" vertex="1">
          <mxGeometry x="180" y="30" width="60" height="240" as="geometry" />
        </mxCell>
        <mxCell id="ISb06XqgIUKjQXBkhnW_-77" value="" style="shape=cube;whiteSpace=wrap;html=1;boundedLbl=1;backgroundOutline=1;darkOpacity=0.05;darkOpacity2=0.1;flipV=0;flipH=1;container=0;" parent="xJ5RliRv3Egy2EiU3JDo-6" vertex="1">
          <mxGeometry x="240" y="30" width="60" height="240" as="geometry" />
        </mxCell>
        <mxCell id="ISb06XqgIUKjQXBkhnW_-78" value="" style="shape=cube;whiteSpace=wrap;html=1;boundedLbl=1;backgroundOutline=1;darkOpacity=0.05;darkOpacity2=0.1;flipV=0;flipH=1;container=0;" parent="xJ5RliRv3Egy2EiU3JDo-6" vertex="1">
          <mxGeometry x="30" y="60" width="60" height="240" as="geometry" />
        </mxCell>
        <mxCell id="ISb06XqgIUKjQXBkhnW_-79" value="" style="shape=cube;whiteSpace=wrap;html=1;boundedLbl=1;backgroundOutline=1;darkOpacity=0.05;darkOpacity2=0.1;flipV=0;flipH=1;container=0;" parent="xJ5RliRv3Egy2EiU3JDo-6" vertex="1">
          <mxGeometry x="90" y="60" width="60" height="240" as="geometry" />
        </mxCell>
        <mxCell id="ISb06XqgIUKjQXBkhnW_-80" value="" style="shape=cube;whiteSpace=wrap;html=1;boundedLbl=1;backgroundOutline=1;darkOpacity=0.05;darkOpacity2=0.1;flipV=0;flipH=1;container=0;" parent="xJ5RliRv3Egy2EiU3JDo-6" vertex="1">
          <mxGeometry y="90" width="60" height="240" as="geometry" />
        </mxCell>
        <mxCell id="ISb06XqgIUKjQXBkhnW_-81" value="" style="shape=cube;whiteSpace=wrap;html=1;boundedLbl=1;backgroundOutline=1;darkOpacity=0.05;darkOpacity2=0.1;flipV=0;flipH=1;container=0;" parent="xJ5RliRv3Egy2EiU3JDo-6" vertex="1">
          <mxGeometry x="60" y="90" width="60" height="240" as="geometry" />
        </mxCell>
        <mxCell id="ISb06XqgIUKjQXBkhnW_-86" value="" style="shape=cube;whiteSpace=wrap;html=1;boundedLbl=1;backgroundOutline=1;darkOpacity=0.05;darkOpacity2=0.1;flipV=0;flipH=1;container=0;" parent="xJ5RliRv3Egy2EiU3JDo-6" vertex="1">
          <mxGeometry x="150" y="60" width="60" height="240" as="geometry" />
        </mxCell>
        <mxCell id="ISb06XqgIUKjQXBkhnW_-87" value="" style="shape=cube;whiteSpace=wrap;html=1;boundedLbl=1;backgroundOutline=1;darkOpacity=0.05;darkOpacity2=0.1;flipV=0;flipH=1;container=0;" parent="xJ5RliRv3Egy2EiU3JDo-6" vertex="1">
          <mxGeometry x="210" y="60" width="60" height="240" as="geometry" />
        </mxCell>
        <mxCell id="ISb06XqgIUKjQXBkhnW_-88" value="" style="shape=cube;whiteSpace=wrap;html=1;boundedLbl=1;backgroundOutline=1;darkOpacity=0.05;darkOpacity2=0.1;flipV=0;flipH=1;container=0;" parent="xJ5RliRv3Egy2EiU3JDo-6" vertex="1">
          <mxGeometry x="120" y="90" width="60" height="240" as="geometry" />
        </mxCell>
        <mxCell id="ISb06XqgIUKjQXBkhnW_-89" value="" style="shape=cube;whiteSpace=wrap;html=1;boundedLbl=1;backgroundOutline=1;darkOpacity=0.05;darkOpacity2=0.1;flipV=0;flipH=1;container=0;" parent="xJ5RliRv3Egy2EiU3JDo-6" vertex="1">
          <mxGeometry x="180" y="90" width="60" height="240" as="geometry" />
        </mxCell>
        <mxCell id="xJ5RliRv3Egy2EiU3JDo-9" value="" style="group" vertex="1" connectable="0" parent="1">
          <mxGeometry x="415" y="230" width="330" height="409" as="geometry" />
        </mxCell>
        <mxCell id="ISb06XqgIUKjQXBkhnW_-25" value="&lt;font style=&quot;font-size: 24px;&quot;&gt;Mode-2 (Rows)&lt;/font&gt;" style="text;html=1;align=center;verticalAlign=middle;resizable=0;points=[];autosize=1;strokeColor=none;fillColor=none;" parent="xJ5RliRv3Egy2EiU3JDo-9" vertex="1">
          <mxGeometry x="70" y="369" width="190" height="40" as="geometry" />
        </mxCell>
        <mxCell id="xJ5RliRv3Egy2EiU3JDo-7" value="" style="group" vertex="1" connectable="0" parent="xJ5RliRv3Egy2EiU3JDo-9">
          <mxGeometry width="330" height="330" as="geometry" />
        </mxCell>
        <mxCell id="ISb06XqgIUKjQXBkhnW_-5" value="" style="shape=cube;whiteSpace=wrap;html=1;boundedLbl=1;backgroundOutline=1;darkOpacity=0.05;darkOpacity2=0.1;flipH=1;container=0;" parent="xJ5RliRv3Egy2EiU3JDo-7" vertex="1">
          <mxGeometry x="90" y="180" width="240" height="60" as="geometry" />
        </mxCell>
        <mxCell id="ISb06XqgIUKjQXBkhnW_-12" value="" style="shape=cube;whiteSpace=wrap;html=1;boundedLbl=1;backgroundOutline=1;darkOpacity=0.05;darkOpacity2=0.1;flipH=1;container=0;" parent="xJ5RliRv3Egy2EiU3JDo-7" vertex="1">
          <mxGeometry x="90" y="120" width="240" height="60" as="geometry" />
        </mxCell>
        <mxCell id="ISb06XqgIUKjQXBkhnW_-13" value="" style="shape=cube;whiteSpace=wrap;html=1;boundedLbl=1;backgroundOutline=1;darkOpacity=0.05;darkOpacity2=0.1;flipH=1;container=0;" parent="xJ5RliRv3Egy2EiU3JDo-7" vertex="1">
          <mxGeometry x="60" y="210" width="240" height="60" as="geometry" />
        </mxCell>
        <mxCell id="ISb06XqgIUKjQXBkhnW_-14" value="" style="shape=cube;whiteSpace=wrap;html=1;boundedLbl=1;backgroundOutline=1;darkOpacity=0.05;darkOpacity2=0.1;flipH=1;container=0;" parent="xJ5RliRv3Egy2EiU3JDo-7" vertex="1">
          <mxGeometry x="60" y="150" width="240" height="60" as="geometry" />
        </mxCell>
        <mxCell id="ISb06XqgIUKjQXBkhnW_-117" value="" style="shape=cube;whiteSpace=wrap;html=1;boundedLbl=1;backgroundOutline=1;darkOpacity=0.05;darkOpacity2=0.1;flipH=1;container=0;" parent="xJ5RliRv3Egy2EiU3JDo-7" vertex="1">
          <mxGeometry x="90" y="60" width="240" height="60" as="geometry" />
        </mxCell>
        <mxCell id="ISb06XqgIUKjQXBkhnW_-118" value="" style="shape=cube;whiteSpace=wrap;html=1;boundedLbl=1;backgroundOutline=1;darkOpacity=0.05;darkOpacity2=0.1;flipH=1;container=0;" parent="xJ5RliRv3Egy2EiU3JDo-7" vertex="1">
          <mxGeometry x="90" width="240" height="60" as="geometry" />
        </mxCell>
        <mxCell id="ISb06XqgIUKjQXBkhnW_-119" value="" style="shape=cube;whiteSpace=wrap;html=1;boundedLbl=1;backgroundOutline=1;darkOpacity=0.05;darkOpacity2=0.1;flipH=1;container=0;" parent="xJ5RliRv3Egy2EiU3JDo-7" vertex="1">
          <mxGeometry x="60" y="90" width="240" height="60" as="geometry" />
        </mxCell>
        <mxCell id="ISb06XqgIUKjQXBkhnW_-120" value="" style="shape=cube;whiteSpace=wrap;html=1;boundedLbl=1;backgroundOutline=1;darkOpacity=0.05;darkOpacity2=0.1;flipH=1;container=0;" parent="xJ5RliRv3Egy2EiU3JDo-7" vertex="1">
          <mxGeometry x="60" y="30" width="240" height="60" as="geometry" />
        </mxCell>
        <mxCell id="ISb06XqgIUKjQXBkhnW_-92" value="" style="shape=cube;whiteSpace=wrap;html=1;boundedLbl=1;backgroundOutline=1;darkOpacity=0.05;darkOpacity2=0.1;flipH=1;container=0;" parent="xJ5RliRv3Egy2EiU3JDo-7" vertex="1">
          <mxGeometry x="30" y="240" width="240" height="60" as="geometry" />
        </mxCell>
        <mxCell id="ISb06XqgIUKjQXBkhnW_-93" value="" style="shape=cube;whiteSpace=wrap;html=1;boundedLbl=1;backgroundOutline=1;darkOpacity=0.05;darkOpacity2=0.1;flipH=1;container=0;" parent="xJ5RliRv3Egy2EiU3JDo-7" vertex="1">
          <mxGeometry x="30" y="180" width="240" height="60" as="geometry" />
        </mxCell>
        <mxCell id="ISb06XqgIUKjQXBkhnW_-94" value="" style="shape=cube;whiteSpace=wrap;html=1;boundedLbl=1;backgroundOutline=1;darkOpacity=0.05;darkOpacity2=0.1;flipH=1;container=0;" parent="xJ5RliRv3Egy2EiU3JDo-7" vertex="1">
          <mxGeometry y="270" width="240" height="60" as="geometry" />
        </mxCell>
        <mxCell id="ISb06XqgIUKjQXBkhnW_-95" value="" style="shape=cube;whiteSpace=wrap;html=1;boundedLbl=1;backgroundOutline=1;darkOpacity=0.05;darkOpacity2=0.1;flipH=1;container=0;" parent="xJ5RliRv3Egy2EiU3JDo-7" vertex="1">
          <mxGeometry y="210" width="240" height="60" as="geometry" />
        </mxCell>
        <mxCell id="ISb06XqgIUKjQXBkhnW_-122" value="" style="shape=cube;whiteSpace=wrap;html=1;boundedLbl=1;backgroundOutline=1;darkOpacity=0.05;darkOpacity2=0.1;flipH=1;container=0;" parent="xJ5RliRv3Egy2EiU3JDo-7" vertex="1">
          <mxGeometry x="30" y="120" width="240" height="60" as="geometry" />
        </mxCell>
        <mxCell id="ISb06XqgIUKjQXBkhnW_-123" value="" style="shape=cube;whiteSpace=wrap;html=1;boundedLbl=1;backgroundOutline=1;darkOpacity=0.05;darkOpacity2=0.1;flipH=1;container=0;" parent="xJ5RliRv3Egy2EiU3JDo-7" vertex="1">
          <mxGeometry x="30" y="60" width="240" height="60" as="geometry" />
        </mxCell>
        <mxCell id="ISb06XqgIUKjQXBkhnW_-124" value="" style="shape=cube;whiteSpace=wrap;html=1;boundedLbl=1;backgroundOutline=1;darkOpacity=0.05;darkOpacity2=0.1;flipH=1;container=0;" parent="xJ5RliRv3Egy2EiU3JDo-7" vertex="1">
          <mxGeometry y="150" width="240" height="60" as="geometry" />
        </mxCell>
        <mxCell id="ISb06XqgIUKjQXBkhnW_-125" value="" style="shape=cube;whiteSpace=wrap;html=1;boundedLbl=1;backgroundOutline=1;darkOpacity=0.05;darkOpacity2=0.1;flipH=1;container=0;" parent="xJ5RliRv3Egy2EiU3JDo-7" vertex="1">
          <mxGeometry y="90" width="240" height="60" as="geometry" />
        </mxCell>
        <mxCell id="xJ5RliRv3Egy2EiU3JDo-10" value="" style="group" vertex="1" connectable="0" parent="1">
          <mxGeometry x="790" y="230" width="350" height="409" as="geometry" />
        </mxCell>
        <mxCell id="ISb06XqgIUKjQXBkhnW_-26" value="&lt;font style=&quot;font-size: 24px;&quot;&gt;Mode-3 (Tubes)&lt;/font&gt;" style="text;html=1;align=center;verticalAlign=middle;resizable=0;points=[];autosize=1;strokeColor=none;fillColor=none;" parent="xJ5RliRv3Egy2EiU3JDo-10" vertex="1">
          <mxGeometry x="80" y="369" width="190" height="40" as="geometry" />
        </mxCell>
        <mxCell id="ISb06XqgIUKjQXBkhnW_-167" value="" style="group" parent="xJ5RliRv3Egy2EiU3JDo-10" vertex="1" connectable="0">
          <mxGeometry width="350" height="330" as="geometry" />
        </mxCell>
        <mxCell id="ISb06XqgIUKjQXBkhnW_-159" value="" style="group" parent="ISb06XqgIUKjQXBkhnW_-167" vertex="1" connectable="0">
          <mxGeometry y="180" width="330" height="150" as="geometry" />
        </mxCell>
        <mxCell id="ISb06XqgIUKjQXBkhnW_-160" value="" style="shape=cube;whiteSpace=wrap;html=1;boundedLbl=1;backgroundOutline=1;darkOpacity=0.05;darkOpacity2=0.1;size=110;flipH=1;container=0;" parent="ISb06XqgIUKjQXBkhnW_-159" vertex="1">
          <mxGeometry width="150" height="150" as="geometry" />
        </mxCell>
        <mxCell id="ISb06XqgIUKjQXBkhnW_-161" value="" style="shape=cube;whiteSpace=wrap;html=1;boundedLbl=1;backgroundOutline=1;darkOpacity=0.05;darkOpacity2=0.1;size=110;flipH=1;container=0;" parent="ISb06XqgIUKjQXBkhnW_-159" vertex="1">
          <mxGeometry x="60" width="150" height="150" as="geometry" />
        </mxCell>
        <mxCell id="ISb06XqgIUKjQXBkhnW_-162" value="" style="shape=cube;whiteSpace=wrap;html=1;boundedLbl=1;backgroundOutline=1;darkOpacity=0.05;darkOpacity2=0.1;size=110;flipH=1;container=0;" parent="ISb06XqgIUKjQXBkhnW_-159" vertex="1">
          <mxGeometry x="120" width="150" height="150" as="geometry" />
        </mxCell>
        <mxCell id="ISb06XqgIUKjQXBkhnW_-163" value="" style="shape=cube;whiteSpace=wrap;html=1;boundedLbl=1;backgroundOutline=1;darkOpacity=0.05;darkOpacity2=0.1;size=110;flipH=1;container=0;" parent="ISb06XqgIUKjQXBkhnW_-159" vertex="1">
          <mxGeometry x="180" width="150" height="150" as="geometry" />
        </mxCell>
        <mxCell id="ISb06XqgIUKjQXBkhnW_-165" value="" style="group" parent="ISb06XqgIUKjQXBkhnW_-159" vertex="1" connectable="0">
          <mxGeometry y="-60" width="330" height="150" as="geometry" />
        </mxCell>
        <mxCell id="ISb06XqgIUKjQXBkhnW_-155" value="" style="shape=cube;whiteSpace=wrap;html=1;boundedLbl=1;backgroundOutline=1;darkOpacity=0.05;darkOpacity2=0.1;size=110;flipH=1;container=0;" parent="ISb06XqgIUKjQXBkhnW_-165" vertex="1">
          <mxGeometry width="150" height="150" as="geometry" />
        </mxCell>
        <mxCell id="ISb06XqgIUKjQXBkhnW_-156" value="" style="shape=cube;whiteSpace=wrap;html=1;boundedLbl=1;backgroundOutline=1;darkOpacity=0.05;darkOpacity2=0.1;size=110;flipH=1;container=0;" parent="ISb06XqgIUKjQXBkhnW_-165" vertex="1">
          <mxGeometry x="60" width="150" height="150" as="geometry" />
        </mxCell>
        <mxCell id="ISb06XqgIUKjQXBkhnW_-157" value="" style="shape=cube;whiteSpace=wrap;html=1;boundedLbl=1;backgroundOutline=1;darkOpacity=0.05;darkOpacity2=0.1;size=110;flipH=1;container=0;" parent="ISb06XqgIUKjQXBkhnW_-165" vertex="1">
          <mxGeometry x="120" width="150" height="150" as="geometry" />
        </mxCell>
        <mxCell id="ISb06XqgIUKjQXBkhnW_-158" value="" style="shape=cube;whiteSpace=wrap;html=1;boundedLbl=1;backgroundOutline=1;darkOpacity=0.05;darkOpacity2=0.1;size=110;flipH=1;container=0;" parent="ISb06XqgIUKjQXBkhnW_-165" vertex="1">
          <mxGeometry x="180" width="150" height="150" as="geometry" />
        </mxCell>
        <mxCell id="ISb06XqgIUKjQXBkhnW_-164" value="" style="group" parent="ISb06XqgIUKjQXBkhnW_-165" vertex="1" connectable="0">
          <mxGeometry y="-60" width="330" height="150" as="geometry" />
        </mxCell>
        <mxCell id="ISb06XqgIUKjQXBkhnW_-150" value="" style="shape=cube;whiteSpace=wrap;html=1;boundedLbl=1;backgroundOutline=1;darkOpacity=0.05;darkOpacity2=0.1;size=110;flipH=1;container=0;" parent="ISb06XqgIUKjQXBkhnW_-164" vertex="1">
          <mxGeometry width="150" height="150" as="geometry" />
        </mxCell>
        <mxCell id="ISb06XqgIUKjQXBkhnW_-151" value="" style="shape=cube;whiteSpace=wrap;html=1;boundedLbl=1;backgroundOutline=1;darkOpacity=0.05;darkOpacity2=0.1;size=110;flipH=1;container=0;" parent="ISb06XqgIUKjQXBkhnW_-164" vertex="1">
          <mxGeometry x="60" width="150" height="150" as="geometry" />
        </mxCell>
        <mxCell id="ISb06XqgIUKjQXBkhnW_-152" value="" style="shape=cube;whiteSpace=wrap;html=1;boundedLbl=1;backgroundOutline=1;darkOpacity=0.05;darkOpacity2=0.1;size=110;flipH=1;container=0;" parent="ISb06XqgIUKjQXBkhnW_-164" vertex="1">
          <mxGeometry x="120" width="150" height="150" as="geometry" />
        </mxCell>
        <mxCell id="ISb06XqgIUKjQXBkhnW_-153" value="" style="shape=cube;whiteSpace=wrap;html=1;boundedLbl=1;backgroundOutline=1;darkOpacity=0.05;darkOpacity2=0.1;size=110;flipH=1;container=0;" parent="ISb06XqgIUKjQXBkhnW_-164" vertex="1">
          <mxGeometry x="180" width="150" height="150" as="geometry" />
        </mxCell>
        <mxCell id="ISb06XqgIUKjQXBkhnW_-148" value="" style="group" parent="ISb06XqgIUKjQXBkhnW_-167" vertex="1" connectable="0">
          <mxGeometry width="350" height="200" as="geometry" />
        </mxCell>
        <mxCell id="ISb06XqgIUKjQXBkhnW_-136" value="" style="shape=cube;whiteSpace=wrap;html=1;boundedLbl=1;backgroundOutline=1;darkOpacity=0.05;darkOpacity2=0.1;size=110;flipH=1;container=0;" parent="ISb06XqgIUKjQXBkhnW_-148" vertex="1">
          <mxGeometry width="150" height="150" as="geometry" />
        </mxCell>
        <mxCell id="ISb06XqgIUKjQXBkhnW_-145" value="" style="shape=cube;whiteSpace=wrap;html=1;boundedLbl=1;backgroundOutline=1;darkOpacity=0.05;darkOpacity2=0.1;size=110;flipH=1;container=0;" parent="ISb06XqgIUKjQXBkhnW_-148" vertex="1">
          <mxGeometry x="60" width="150" height="150" as="geometry" />
        </mxCell>
        <mxCell id="ISb06XqgIUKjQXBkhnW_-146" value="" style="shape=cube;whiteSpace=wrap;html=1;boundedLbl=1;backgroundOutline=1;darkOpacity=0.05;darkOpacity2=0.1;size=110;flipH=1;container=0;" parent="ISb06XqgIUKjQXBkhnW_-148" vertex="1">
          <mxGeometry x="120" width="150" height="150" as="geometry" />
        </mxCell>
        <mxCell id="ISb06XqgIUKjQXBkhnW_-147" value="" style="shape=cube;whiteSpace=wrap;html=1;boundedLbl=1;backgroundOutline=1;darkOpacity=0.05;darkOpacity2=0.1;size=110;flipH=1;container=0;" parent="ISb06XqgIUKjQXBkhnW_-148" vertex="1">
          <mxGeometry x="180" width="150" height="150" as="geometry" />
        </mxCell>
      </root>
    </mxGraphModel>
  </diagram>
</mxfile>
